<svg width="33" height="32" viewBox="0 0 33 32" fill="none" xmlns="http://www.w3.org/2000/svg">
<path d="M8.2718 4.49996C8.2718 5.51662 7.8432 6.49165 7.0803 7.21054C6.3174 7.92943 5.28268 8.33329 4.20377 8.33329C3.12486 8.33329 2.09014 7.92943 1.32724 7.21054C0.564337 6.49165 0.135742 5.51662 0.135742 4.49996C0.135742 3.4833 0.564337 2.50827 1.32724 1.78938C2.09014 1.07049 3.12486 0.666626 4.20377 0.666626C5.28268 0.666626 6.3174 1.07049 7.0803 1.78938C7.8432 2.50827 8.2718 3.4833 8.2718 4.49996ZM8.2718 16C8.2718 17.0166 7.8432 17.9916 7.0803 18.7105C6.3174 19.4294 5.28268 19.8333 4.20377 19.8333C3.12486 19.8333 2.09014 19.4294 1.32724 18.7105C0.564337 17.9916 0.135742 17.0166 0.135742 16C0.135742 14.9833 0.564337 14.0083 1.32724 13.2894C2.09014 12.5705 3.12486 12.1666 4.20377 12.1666C5.28268 12.1666 6.3174 12.5705 7.0803 13.2894C7.8432 14.0083 8.2718 14.9833 8.2718 16ZM4.20377 31.3333C5.28268 31.3333 6.3174 30.9294 7.0803 30.2105C7.8432 29.4916 8.2718 28.5166 8.2718 27.5C8.2718 26.4833 7.8432 25.5083 7.0803 24.7894C6.3174 24.0705 5.28268 23.6666 4.20377 23.6666C3.12486 23.6666 2.09014 24.0705 1.32724 24.7894C0.564337 25.5083 0.135742 26.4833 0.135742 27.5C0.135742 28.5166 0.564337 29.4916 1.32724 30.2105C2.09014 30.9294 3.12486 31.3333 4.20377 31.3333ZM20.4759 4.49996C20.4759 5.51662 20.0473 6.49165 19.2844 7.21054C18.5215 7.92943 17.4868 8.33329 16.4079 8.33329C15.3289 8.33329 14.2942 7.92943 13.5313 7.21054C12.7684 6.49165 12.3398 5.51662 12.3398 4.49996C12.3398 3.4833 12.7684 2.50827 13.5313 1.78938C14.2942 1.07049 15.3289 0.666626 16.4079 0.666626C17.4868 0.666626 18.5215 1.07049 19.2844 1.78938C20.0473 2.50827 20.4759 3.4833 20.4759 4.49996ZM16.4079 19.8333C17.4868 19.8333 18.5215 19.4294 19.2844 18.7105C20.0473 17.9916 20.4759 17.0166 20.4759 16C20.4759 14.9833 20.0473 14.0083 19.2844 13.2894C18.5215 12.5705 17.4868 12.1666 16.4079 12.1666C15.3289 12.1666 14.2942 12.5705 13.5313 13.2894C12.7684 14.0083 12.3398 14.9833 12.3398 16C12.3398 17.0166 12.7684 17.9916 13.5313 18.7105C14.2942 19.4294 15.3289 19.8333 16.4079 19.8333ZM20.4759 27.5C20.4759 28.5166 20.0473 29.4916 19.2844 30.2105C18.5215 30.9294 17.4868 31.3333 16.4079 31.3333C15.3289 31.3333 14.2942 30.9294 13.5313 30.2105C12.7684 29.4916 12.3398 28.5166 12.3398 27.5C12.3398 26.4833 12.7684 25.5083 13.5313 24.7894C14.2942 24.0705 15.3289 23.6666 16.4079 23.6666C17.4868 23.6666 18.5215 24.0705 19.2844 24.7894C20.0473 25.5083 20.4759 26.4833 20.4759 27.5ZM28.6119 8.33329C29.6908 8.33329 30.7256 7.92943 31.4885 7.21054C32.2514 6.49165 32.68 5.51662 32.68 4.49996C32.68 3.4833 32.2514 2.50827 31.4885 1.78938C30.7256 1.07049 29.6908 0.666626 28.6119 0.666626C27.533 0.666626 26.4983 1.07049 25.7354 1.78938C24.9725 2.50827 24.5439 3.4833 24.5439 4.49996C24.5439 5.51662 24.9725 6.49165 25.7354 7.21054C26.4983 7.92943 27.533 8.33329 28.6119 8.33329ZM32.68 16C32.68 17.0166 32.2514 17.9916 31.4885 18.7105C30.7256 19.4294 29.6908 19.8333 28.6119 19.8333C27.533 19.8333 26.4983 19.4294 25.7354 18.7105C24.9725 17.9916 24.5439 17.0166 24.5439 16C24.5439 14.9833 24.9725 14.0083 25.7354 13.2894C26.4983 12.5705 27.533 12.1666 28.6119 12.1666C29.6908 12.1666 30.7256 12.5705 31.4885 13.2894C32.2514 14.0083 32.68 14.9833 32.68 16ZM28.6119 31.3333C29.6908 31.3333 30.7256 30.9294 31.4885 30.2105C32.2514 29.4916 32.68 28.5166 32.68 27.5C32.68 26.4833 32.2514 25.5083 31.4885 24.7894C30.7256 24.0705 29.6908 23.6666 28.6119 23.6666C27.533 23.6666 26.4983 24.0705 25.7354 24.7894C24.9725 25.5083 24.5439 26.4833 24.5439 27.5C24.5439 28.5166 24.9725 29.4916 25.7354 30.2105C26.4983 30.9294 27.533 31.3333 28.6119 31.3333Z" fill="white"/>
</svg>
