<svg width="96" height="116" viewBox="0 0 96 116" fill="none" xmlns="http://www.w3.org/2000/svg">
<path d="M0 53.2544L18.4276 34.1775H47.9606H77.4936L95.9212 53.2544L47.9606 115.565L0 53.2544Z" fill="url(#paint0_linear_1_1723)"/>
<path d="M0 53.2544L18.4276 34.1775H47.9606H77.4936L95.9212 53.2544L47.9606 115.565L0 53.2544Z" fill="url(#paint1_radial_1_1723)"/>
<path d="M0 53.2544L18.4276 34.1775H47.9606H77.4936L95.9212 53.2544L47.9606 115.565L0 53.2544Z" fill="url(#paint2_radial_1_1723)"/>
<mask id="mask0_1_1723" style="mask-type:alpha" maskUnits="userSpaceOnUse" x="0" y="34" width="96" height="82">
<path d="M0 53.2544L18.4276 34.1775H47.9606H77.4936L95.9212 53.2544L47.9606 115.565L0 53.2544Z" fill="#C4C4C4"/>
</mask>
<g mask="url(#mask0_1_1723)">
<path fill-rule="evenodd" clip-rule="evenodd" d="M40.1039 109.574L46.402 96.0031L43.8641 60.8647L55.037 64.2606L66.3466 74.0922L73.8295 74.6036L78.0538 63.4757L66.35 46.6896L61.6578 33.617L85.3734 8.80825L57.2829 28.7777L58.9841 23.6384L54.4555 26.3198L54.5248 21.6177L45.9148 30.216L26.2924 38.9689L-0.126523 76.6649L23.3936 114.052L40.1039 109.574ZM57.2829 42.3671L51.6593 41.7065L55.7552 45.9344L58.7198 45.6702L57.2829 42.3671Z" fill="white"/>
<path d="M40.1026 109.571L46.4007 95.9999L43.8628 60.8615L37.3887 48.7062L26.2911 73.1489L35.1427 88.0788L40.1026 109.571Z" fill="#D9D6FF"/>
</g>
<g clip-path="url(#clip0_1_1723)">
<path d="M37.2675 119.049L44.3026 103.89L44.1749 63.1652L53.9482 68.4328L66.5812 79.415L74.9398 79.9863L79.6584 67.5561L66.585 48.8057L61.3438 34.2032L87.8346 6.4912L56.4568 28.7975L58.3571 23.0568L53.2986 26.052L53.376 20.7997L43.7584 30.4042L21.8397 40.1814L-7.67091 82.2888L18.6017 124.051L37.2675 119.049Z" fill="white"/>
</g>
<defs>
<linearGradient id="paint0_linear_1_1723" x1="95.9212" y1="34.1775" x2="15.6198" y2="128.818" gradientUnits="userSpaceOnUse">
<stop stop-color="#F7C6FF"/>
<stop offset="1" stop-color="#886AFF"/>
</linearGradient>
<radialGradient id="paint1_radial_1_1723" cx="0" cy="0" r="1" gradientUnits="userSpaceOnUse" gradientTransform="translate(76.1991 115.565) rotate(-140.1) scale(72.2155 71.0818)">
<stop stop-color="#E168FF"/>
<stop offset="1" stop-color="#6F3CFF" stop-opacity="0"/>
</radialGradient>
<radialGradient id="paint2_radial_1_1723" cx="0" cy="0" r="1" gradientUnits="userSpaceOnUse" gradientTransform="translate(25.9973 34.1775) rotate(88.8833) scale(59.7971 70.4677)">
<stop stop-color="#FD96FF"/>
<stop offset="1" stop-color="#8CACFF" stop-opacity="0"/>
</radialGradient>
<clipPath id="clip0_1_1723">
<rect width="69" height="35" fill="white" transform="translate(9)"/>
</clipPath>
</defs>
</svg>
